<svg width="33" height="34" viewBox="0 0 33 34" fill="none" xmlns="http://www.w3.org/2000/svg">
<path d="M20.7652 23.7285L23.2034 21.2886C23.5787 20.9087 24.0254 20.6068 24.5179 20.401C25.0105 20.1952 25.5388 20.0893 26.0725 20.0893C26.6063 20.0893 27.1347 20.1952 27.6273 20.401C28.1197 20.6068 28.5664 20.9087 28.9415 21.2886L31.8014 24.1504C32.1811 24.5257 32.4827 24.9724 32.6883 25.4653C32.894 25.958 33 26.487 33 27.021C33 27.5552 32.894 28.084 32.6883 28.5769C32.4827 29.0696 32.1811 29.5163 31.8014 29.8916L30.4998 31.2123C29.603 32.1185 28.4431 32.7184 27.1854 32.9258C25.9278 33.1333 24.6368 32.9383 23.4967 32.3682C13.6857 27.3147 5.69443 19.3249 0.635997 9.51218C0.065724 8.37014 -0.127905 7.07657 0.0829199 5.81748C0.293745 4.55837 0.898172 3.39847 1.80932 2.50479L3.11087 1.1841C3.87337 0.425737 4.90482 0 5.97992 0C7.05502 0 8.08647 0.425737 8.84898 1.1841L11.7272 4.06416C12.4851 4.82714 12.9106 5.85908 12.9106 6.93485C12.9106 8.01059 12.4851 9.04253 11.7272 9.80551L9.28894 12.2454C10.9011 14.4274 12.672 16.4872 14.5871 18.4085C16.4911 20.317 18.5381 22.0772 20.7102 23.6735L20.7652 23.7285Z" fill="#FF7323"/>
</svg>
